<svg width="21" height="20" viewBox="0 0 21 20" fill="none" xmlns="http://www.w3.org/2000/svg">
<rect x="0.860352" width="20" height="20" rx="10" fill="#1ABA1A"/>
<path d="M11.0186 14.1094C10.5602 14.1094 10.1475 14.0182 9.78029 13.8359C9.4131 13.6536 9.11883 13.4036 8.89747 13.0859C8.67612 12.7682 8.55502 12.4062 8.53419 12H9.47169C9.50815 12.362 9.67221 12.6615 9.96388 12.8984C10.2581 13.1328 10.6097 13.25 11.0186 13.25C11.3467 13.25 11.6384 13.1732 11.8936 13.0195C12.1514 12.8659 12.3532 12.6549 12.499 12.3867C12.6475 12.1159 12.7217 11.8099 12.7217 11.4687C12.7217 11.1198 12.6449 10.8086 12.4912 10.5352C12.3402 10.2591 12.1318 10.0417 11.8662 9.88281C11.6006 9.72396 11.2972 9.64323 10.9561 9.64062C10.7113 9.63802 10.46 9.67578 10.2022 9.75391C9.94435 9.82943 9.73211 9.92708 9.56544 10.0469L8.65919 9.9375L9.14357 6H13.2998V6.85937H9.95607L9.67482 9.21875H9.72169C9.88575 9.08854 10.0915 8.98047 10.3389 8.89453C10.5863 8.80859 10.8441 8.76562 11.1123 8.76562C11.6019 8.76562 12.0381 8.88281 12.4209 9.11719C12.8063 9.34896 13.1084 9.66667 13.3272 10.0703C13.5485 10.474 13.6592 10.9349 13.6592 11.4531C13.6592 11.9635 13.5446 12.4193 13.3154 12.8203C13.0889 13.2187 12.7764 13.5339 12.3779 13.7656C11.9795 13.9948 11.5264 14.1094 11.0186 14.1094Z" fill="white"/>
</svg>
