<svg width="16" height="13" viewBox="0 0 16 13" fill="none" xmlns="http://www.w3.org/2000/svg">
<path d="M7.61035 9.76501C7.81348 9.76501 8.0166 9.74158 8.21973 9.6947L9.43848 10.6556C8.79785 10.8119 8.18848 10.89 7.61035 10.89C6.18848 10.89 4.88379 10.515 3.69629 9.76501C2.50879 8.99939 1.58691 7.99158 0.930664 6.74158C0.883789 6.6322 0.860352 6.51501 0.860352 6.39001C0.860352 6.26501 0.883789 6.14783 0.930664 6.03845C1.14941 5.6322 1.43848 5.20251 1.79785 4.74939L4.25879 6.64783C4.30566 7.22595 4.47754 7.7572 4.77441 8.24158C5.08691 8.71033 5.49316 9.08533 5.99316 9.36658C6.49316 9.6322 7.03223 9.76501 7.61035 9.76501ZM14.9697 11.1244C15.0635 11.2025 15.1104 11.3041 15.1104 11.4291C15.1104 11.5072 15.0869 11.5853 15.04 11.6635L14.5713 12.2494C14.4932 12.3431 14.3916 12.39 14.2666 12.39C14.1885 12.39 14.1182 12.3666 14.0557 12.3197L0.250977 1.65564C0.157227 1.57751 0.110352 1.47595 0.110352 1.35095C0.110352 1.27283 0.133789 1.1947 0.180664 1.11658L0.649414 0.53064C0.727539 0.43689 0.829102 0.390015 0.954102 0.390015C1.03223 0.390015 1.10254 0.413452 1.16504 0.460327L4.16504 2.78064C4.44629 2.60876 4.79004 2.46033 5.19629 2.33533C5.61816 2.1947 6.04004 2.08533 6.46191 2.0072C6.89941 1.92908 7.28223 1.89001 7.61035 1.89001C9.03223 1.89001 10.3369 2.27283 11.5244 3.03845C12.7119 3.78845 13.6338 4.78845 14.29 6.03845C14.3369 6.14783 14.3604 6.26501 14.3604 6.39001C14.3604 6.51501 14.3369 6.6322 14.29 6.74158C14.0869 7.11658 13.7979 7.53845 13.4229 8.0072C13.0479 8.47595 12.6963 8.85095 12.3682 9.1322L14.9697 11.1244ZM10.6572 7.79626C10.876 7.34314 10.9854 6.87439 10.9854 6.39001C10.9854 5.45251 10.6572 4.65564 10.001 3.99939C9.34473 3.34314 8.54785 3.01501 7.61035 3.01501C7.28223 3.01501 6.90723 3.09314 6.48535 3.24939C6.06348 3.39001 5.72754 3.5697 5.47754 3.78845L7.18848 5.12439C7.21973 5.04626 7.23535 4.96814 7.23535 4.89001C7.23535 4.64001 7.16504 4.42126 7.02441 4.23376C7.22754 4.17126 7.43066 4.14001 7.63379 4.14001C8.24316 4.14001 8.7666 4.35876 9.2041 4.79626C9.6416 5.23376 9.86035 5.7572 9.86035 6.36658C9.86035 6.36658 9.86035 6.37439 9.86035 6.39001C9.86035 6.62439 9.82129 6.85876 9.74316 7.09314L10.6572 7.79626Z" fill="black"/>
</svg>
