<svg width="13" height="13" viewBox="0 0 13 13" fill="none" xmlns="http://www.w3.org/2000/svg">
<path d="M6.45547 3.58545C8.17812 3.58545 9.6 5.00732 9.6 6.72998C9.6 8.47998 8.17812 9.87451 6.45547 9.87451C4.70547 9.87451 3.31094 8.47998 3.31094 6.72998C3.31094 5.00732 4.70547 3.58545 6.45547 3.58545ZM6.45547 8.78076C7.57656 8.78076 8.47891 7.87842 8.47891 6.72998C8.47891 5.60889 7.57656 4.70654 6.45547 4.70654C5.30703 4.70654 4.40469 5.60889 4.40469 6.72998C4.40469 7.87842 5.33437 8.78076 6.45547 8.78076ZM10.4477 3.47607C10.4477 3.88623 10.1195 4.21436 9.70937 4.21436C9.29922 4.21436 8.97109 3.88623 8.97109 3.47607C8.97109 3.06592 9.29922 2.73779 9.70937 2.73779C10.1195 2.73779 10.4477 3.06592 10.4477 3.47607ZM12.5258 4.21436C12.5805 5.22607 12.5805 8.26123 12.5258 9.27295C12.4711 10.2573 12.2523 11.105 11.5414 11.8433C10.8305 12.5542 9.95547 12.7729 8.97109 12.8276C7.95937 12.8823 4.92422 12.8823 3.9125 12.8276C2.92812 12.7729 2.08047 12.5542 1.34219 11.8433C0.63125 11.105 0.4125 10.2573 0.357812 9.27295C0.303125 8.26123 0.303125 5.22607 0.357812 4.21436C0.4125 3.22998 0.63125 2.35498 1.34219 1.64404C2.08047 0.933105 2.92812 0.714355 3.9125 0.659668C4.92422 0.60498 7.95937 0.60498 8.97109 0.659668C9.95547 0.714355 10.8305 0.933105 11.5414 1.64404C12.2523 2.35498 12.4711 3.22998 12.5258 4.21436ZM11.2133 10.3394C11.5414 9.54639 11.4594 7.63232 11.4594 6.72998C11.4594 5.85498 11.5414 3.94092 11.2133 3.12061C10.9945 2.60107 10.5844 2.16357 10.0648 1.97217C9.24453 1.64404 7.33047 1.72607 6.45547 1.72607C5.55312 1.72607 3.63906 1.64404 2.84609 1.97217C2.29922 2.19092 1.88906 2.60107 1.67031 3.12061C1.34219 3.94092 1.42422 5.85498 1.42422 6.72998C1.42422 7.63232 1.34219 9.54639 1.67031 10.3394C1.88906 10.8862 2.29922 11.2964 2.84609 11.5151C3.63906 11.8433 5.55312 11.7612 6.45547 11.7612C7.33047 11.7612 9.24453 11.8433 10.0648 11.5151C10.5844 11.2964 11.0219 10.8862 11.2133 10.3394Z" fill="black"/>
</svg>
