<svg width="10" height="7" viewBox="0 0 10 7" fill="none" xmlns="http://www.w3.org/2000/svg">
<path opacity="0.8" d="M4.40801 6.19435L0.164258 1.9506C0.0621745 1.84851 0.0111328 1.72456 0.0111328 1.57872C0.0111328 1.43289 0.0621745 1.30893 0.164258 1.20685L0.645508 0.725598C0.747591 0.623515 0.871549 0.572473 1.01738 0.572473C1.16322 0.55789 1.28717 0.60164 1.38926 0.703723L4.77988 4.09435L8.17051 0.703723C8.27259 0.60164 8.39655 0.55789 8.54238 0.572473C8.68822 0.572473 8.81217 0.623515 8.91426 0.725598L9.39551 1.20685C9.49759 1.30893 9.54863 1.43289 9.54863 1.57872C9.54863 1.72456 9.49759 1.84851 9.39551 1.9506L5.15176 6.19435C5.04967 6.31101 4.92572 6.36935 4.77988 6.36935C4.63405 6.36935 4.51009 6.31101 4.40801 6.19435Z" fill="black"/>
</svg>
