<svg width="15" height="15" viewBox="0 0 15 15" fill="none" xmlns="http://www.w3.org/2000/svg">
<path d="M14.5824 12.8633C14.71 12.9909 14.7738 13.1458 14.7738 13.3281C14.7738 13.5104 14.71 13.6654 14.5824 13.793L13.8168 14.5586C13.6892 14.6862 13.5342 14.75 13.352 14.75C13.1697 14.75 13.0147 14.6862 12.8871 14.5586L10.1527 11.8242C10.0251 11.6966 9.96133 11.5417 9.96133 11.3594V10.9219C8.94049 11.724 7.77383 12.125 6.46133 12.125C4.89362 12.125 3.55378 11.569 2.4418 10.457C1.32982 9.34505 0.773828 8.00521 0.773828 6.4375C0.773828 4.86979 1.32982 3.52995 2.4418 2.41797C3.55378 1.30599 4.89362 0.75 6.46133 0.75C8.02904 0.75 9.36888 1.30599 10.4809 2.41797C11.5928 3.52995 12.1488 4.86979 12.1488 6.4375C12.1488 7.75 11.7478 8.91667 10.9457 9.9375H11.3832C11.5655 9.9375 11.7204 10.0013 11.848 10.1289L14.5824 12.8633ZM3.97305 8.92578C4.66576 9.60026 5.49518 9.9375 6.46133 9.9375C7.42747 9.9375 8.24779 9.60026 8.92227 8.92578C9.61497 8.23307 9.96133 7.40365 9.96133 6.4375C9.96133 5.47135 9.61497 4.65104 8.92227 3.97656C8.24779 3.28385 7.42747 2.9375 6.46133 2.9375C5.49518 2.9375 4.66576 3.28385 3.97305 3.97656C3.29857 4.65104 2.96133 5.47135 2.96133 6.4375C2.96133 7.40365 3.29857 8.23307 3.97305 8.92578Z" fill="black"/>
</svg>
