<svg width="278" height="15" viewBox="0 0 278 15" fill="none" xmlns="http://www.w3.org/2000/svg">
<path d="M2.5 5.90909C2.5 5.36553 2.63258 4.87003 2.89773 4.42259C3.16288 3.97514 3.51918 3.61884 3.96662 3.35369C4.41406 3.08854 4.90956 2.95597 5.45312 2.95597C5.92377 2.95597 6.35795 3.05705 6.75568 3.25923C7.15672 3.46141 7.48816 3.73816 7.75 4.08949C8.01184 4.4375 8.17424 4.83191 8.23722 5.27273H7.03409C6.9678 4.93134 6.78385 4.65294 6.48224 4.4375C6.18063 4.21875 5.83759 4.10938 5.45312 4.10938C5.12169 4.10938 4.82008 4.19058 4.5483 4.35298C4.27652 4.51539 4.05942 4.73248 3.89702 5.00426C3.73461 5.27604 3.65341 5.57765 3.65341 5.90909C3.65341 6.24053 3.73461 6.54214 3.89702 6.81392C4.05942 7.0857 4.27652 7.30279 4.5483 7.4652C4.82008 7.6276 5.12169 7.70881 5.45312 7.70881C5.83759 7.70881 6.16241 7.60109 6.42756 7.38565C6.69602 7.1669 6.86506 6.88684 6.93466 6.54545H8.13778C8.07481 6.98627 7.92069 7.38234 7.67543 7.73366C7.43016 8.08168 7.11529 8.35677 6.73082 8.55895C6.34967 8.76113 5.92377 8.86222 5.45312 8.86222C4.90956 8.86222 4.41406 8.72964 3.96662 8.46449C3.51918 8.19934 3.16288 7.84304 2.89773 7.3956C2.63258 6.94815 2.5 6.45265 2.5 5.90909ZM5.40341 11.1591C4.68087 11.1591 4.00142 11.0232 3.36506 10.7514C2.73201 10.4796 2.17353 10.1035 1.68963 9.62287C1.20904 9.13897 0.831203 8.58049 0.556108 7.94744C0.284328 7.31439 0.150095 6.63494 0.153409 5.90909C0.156723 5.18324 0.294271 4.50379 0.566051 3.87074C0.841146 3.23769 1.21899 2.68087 1.69957 2.20028C2.18016 1.71638 2.73698 1.33854 3.37003 1.06676C4.00308 0.794981 4.68087 0.659091 5.40341 0.659091C6.12926 0.659091 6.80871 0.794981 7.44176 1.06676C8.07813 1.33854 8.63494 1.71638 9.11222 2.20028C9.5928 2.68087 9.96899 3.23769 10.2408 3.87074C10.5125 4.50379 10.6501 5.18324 10.6534 5.90909C10.6567 6.63494 10.5225 7.31439 10.2507 7.94744C9.97893 8.58049 9.60275 9.13897 9.12216 9.62287C8.64157 10.1035 8.0831 10.4796 7.44673 10.7514C6.81037 11.0232 6.12926 11.1591 5.40341 11.1591ZM5.40341 10.0057C5.97017 10.0057 6.50213 9.89962 6.99929 9.6875C7.49645 9.47538 7.93229 9.18205 8.30682 8.80753C8.68134 8.433 8.97467 7.99882 9.18679 7.50497C9.39891 7.00781 9.50331 6.47751 9.5 5.91406C9.49669 5.3473 9.38897 4.81534 9.17685 4.31818C8.96473 3.82102 8.6714 3.38518 8.29688 3.01065C7.92235 2.63613 7.48816 2.3428 6.99432 2.13068C6.50047 1.91856 5.97017 1.8125 5.40341 1.8125C4.83996 1.8125 4.31132 1.91856 3.81747 2.13068C3.32363 2.3428 2.88944 2.63778 2.51491 3.01562C2.14039 3.39015 1.84541 3.82599 1.62997 4.32315C1.41785 4.817 1.31013 5.3473 1.30682 5.91406C1.3035 6.47419 1.40791 7.00284 1.62003 7.5C1.83215 7.99384 2.12547 8.42803 2.5 8.80256C2.87784 9.17708 3.31368 9.47206 3.80753 9.6875C4.30469 9.89962 4.83665 10.0057 5.40341 10.0057ZM16.802 11V10.1051L20.1628 6.42614C20.5572 5.99526 20.882 5.62074 21.1373 5.30256C21.3925 4.98106 21.5814 4.67945 21.704 4.39773C21.83 4.11269 21.8929 3.81439 21.8929 3.50284C21.8929 3.14489 21.8068 2.83499 21.6344 2.57315C21.4654 2.31132 21.2334 2.10914 20.9384 1.96662C20.6434 1.8241 20.312 1.75284 19.9441 1.75284C19.553 1.75284 19.2116 1.83404 18.9199 1.99645C18.6316 2.15554 18.4078 2.37926 18.2488 2.66761C18.093 2.95597 18.0151 3.29403 18.0151 3.68182H16.8418C16.8418 3.08523 16.9793 2.56155 17.2544 2.1108C17.5295 1.66004 17.9041 1.30871 18.378 1.05682C18.8553 0.804924 19.3906 0.678977 19.9838 0.678977C20.5804 0.678977 21.1091 0.804924 21.5698 1.05682C22.0305 1.30871 22.3917 1.64844 22.6536 2.07599C22.9154 2.50355 23.0463 2.97917 23.0463 3.50284C23.0463 3.87737 22.9784 4.24361 22.8425 4.60156C22.7099 4.9562 22.4779 5.35227 22.1465 5.78977C21.8184 6.22396 21.3626 6.75426 20.7793 7.38068L18.4924 9.8267V9.90625H23.2253V11H16.802ZM28.5996 11.1392C27.8506 11.1392 27.2125 10.9354 26.6855 10.5277C26.1586 10.1167 25.7559 9.52178 25.4775 8.7429C25.199 7.9607 25.0598 7.0161 25.0598 5.90909C25.0598 4.80871 25.199 3.86908 25.4775 3.0902C25.7592 2.308 26.1635 1.71141 26.6905 1.30043C27.2208 0.886126 27.8572 0.678977 28.5996 0.678977C29.342 0.678977 29.9767 0.886126 30.5037 1.30043C31.034 1.71141 31.4384 2.308 31.7168 3.0902C31.9985 3.86908 32.1394 4.80871 32.1394 5.90909C32.1394 7.0161 32.0002 7.9607 31.7218 8.7429C31.4434 9.52178 31.0407 10.1167 30.5137 10.5277C29.9867 10.9354 29.3487 11.1392 28.5996 11.1392ZM28.5996 10.0455C29.342 10.0455 29.9187 9.6875 30.3297 8.97159C30.7407 8.25568 30.9462 7.23485 30.9462 5.90909C30.9462 5.02746 30.8517 4.27675 30.6628 3.65696C30.4772 3.03717 30.2087 2.56487 29.8574 2.24006C29.5094 1.91525 29.0901 1.75284 28.5996 1.75284C27.8638 1.75284 27.2888 2.11577 26.8745 2.84162C26.4602 3.56416 26.253 4.58665 26.253 5.90909C26.253 6.79072 26.3458 7.53977 26.5314 8.15625C26.717 8.77273 26.9838 9.24171 27.3319 9.56321C27.6832 9.88471 28.1058 10.0455 28.5996 10.0455ZM34.0286 11V10.1051L37.3894 6.42614C37.7838 5.99526 38.1086 5.62074 38.3638 5.30256C38.619 4.98106 38.8079 4.67945 38.9306 4.39773C39.0565 4.11269 39.1195 3.81439 39.1195 3.50284C39.1195 3.14489 39.0333 2.83499 38.861 2.57315C38.6919 2.31132 38.4599 2.10914 38.165 1.96662C37.87 1.8241 37.5385 1.75284 37.1706 1.75284C36.7795 1.75284 36.4382 1.83404 36.1465 1.99645C35.8581 2.15554 35.6344 2.37926 35.4753 2.66761C35.3195 2.95597 35.2417 3.29403 35.2417 3.68182H34.0684C34.0684 3.08523 34.2059 2.56155 34.481 2.1108C34.7561 1.66004 35.1306 1.30871 35.6046 1.05682C36.0819 0.804924 36.6171 0.678977 37.2104 0.678977C37.807 0.678977 38.3356 0.804924 38.7963 1.05682C39.257 1.30871 39.6183 1.64844 39.8801 2.07599C40.142 2.50355 40.2729 2.97917 40.2729 3.50284C40.2729 3.87737 40.205 4.24361 40.0691 4.60156C39.9365 4.9562 39.7045 5.35227 39.373 5.78977C39.0449 6.22396 38.5892 6.75426 38.0059 7.38068L35.7189 9.8267V9.90625H40.4519V11H34.0286ZM42.0478 8.91193V7.89773L46.5222 0.818182H47.258V2.3892H46.7608L43.3801 7.73864V7.81818H49.4057V8.91193H42.0478ZM46.8404 11V8.60369V8.13139V0.818182H48.0137V11H46.8404ZM145.536 11.0795C145.291 11.0795 145.081 10.9917 144.905 10.8161C144.729 10.6404 144.642 10.4299 144.642 10.1847C144.642 9.93939 144.729 9.72893 144.905 9.55327C145.081 9.3776 145.291 9.28977 145.536 9.28977C145.782 9.28977 145.992 9.3776 146.168 9.55327C146.343 9.72893 146.431 9.93939 146.431 10.1847C146.431 10.3471 146.39 10.4962 146.307 10.6321C146.227 10.768 146.12 10.8774 145.984 10.9602C145.851 11.0398 145.702 11.0795 145.536 11.0795ZM153.051 11H151.758L155.497 0.818182H156.77L160.508 11H159.216L156.173 2.42898H156.094L153.051 11ZM153.528 7.02273H158.738V8.11648H153.528V7.02273ZM163.108 0.818182V11H161.935V0.818182H163.108ZM166.431 0.818182V11H165.257V0.818182H166.431ZM172.676 11V0.818182H176.117C176.912 0.818182 177.565 0.954072 178.075 1.22585C178.586 1.49432 178.964 1.86387 179.209 2.33452C179.454 2.80516 179.577 3.34044 179.577 3.94034C179.577 4.54025 179.454 5.07221 179.209 5.53622C178.964 6.00024 178.588 6.36482 178.08 6.62997C177.573 6.89181 176.925 7.02273 176.137 7.02273H173.352V5.90909H176.097C176.64 5.90909 177.078 5.82955 177.409 5.67045C177.744 5.51136 177.986 5.28598 178.135 4.99432C178.288 4.69934 178.364 4.34801 178.364 3.94034C178.364 3.53267 178.288 3.17637 178.135 2.87145C177.983 2.56652 177.739 2.3312 177.404 2.16548C177.07 1.99645 176.627 1.91193 176.077 1.91193H173.909V11H172.676ZM177.469 6.42614L179.975 11H178.543L176.077 6.42614H177.469ZM181.472 11V3.36364H182.646V11H181.472ZM182.069 2.09091C181.84 2.09091 181.643 2.01302 181.477 1.85724C181.315 1.70147 181.234 1.5142 181.234 1.29545C181.234 1.0767 181.315 0.889441 181.477 0.733664C181.643 0.577888 181.84 0.5 182.069 0.5C182.298 0.5 182.493 0.577888 182.656 0.733664C182.821 0.889441 182.904 1.0767 182.904 1.29545C182.904 1.5142 182.821 1.70147 182.656 1.85724C182.493 2.01302 182.298 2.09091 182.069 2.09091ZM187.877 14.0227C187.31 14.0227 186.823 13.9498 186.415 13.804C186.008 13.6615 185.668 13.4725 185.396 13.2372C185.128 13.0052 184.914 12.7566 184.755 12.4915L185.689 11.8352C185.796 11.9744 185.93 12.1335 186.092 12.3125C186.255 12.4948 186.477 12.6522 186.758 12.7848C187.043 12.9207 187.416 12.9886 187.877 12.9886C188.493 12.9886 189.002 12.8395 189.403 12.5412C189.804 12.2429 190.005 11.7756 190.005 11.1392V9.58807H189.905C189.819 9.72727 189.697 9.89962 189.537 10.1051C189.382 10.3073 189.156 10.4879 188.861 10.647C188.57 10.8028 188.175 10.8807 187.678 10.8807C187.062 10.8807 186.508 10.7348 186.018 10.4432C185.53 10.1515 185.144 9.72727 184.859 9.17045C184.577 8.61364 184.437 7.9375 184.437 7.14205C184.437 6.35985 184.574 5.67874 184.849 5.09872C185.124 4.51539 185.507 4.06463 185.998 3.74645C186.488 3.42495 187.055 3.2642 187.698 3.2642C188.195 3.2642 188.59 3.34706 188.881 3.51278C189.176 3.67519 189.402 3.8608 189.557 4.0696C189.716 4.27509 189.839 4.44413 189.925 4.5767H190.045V3.36364H191.178V11.2188C191.178 11.875 191.029 12.4086 190.731 12.8196C190.436 13.2339 190.038 13.5372 189.537 13.7294C189.04 13.925 188.487 14.0227 187.877 14.0227ZM187.837 9.8267C188.308 9.8267 188.706 9.71899 189.03 9.50355C189.355 9.28812 189.602 8.97822 189.771 8.57386C189.94 8.16951 190.025 7.68561 190.025 7.12216C190.025 6.57197 189.942 6.08641 189.776 5.66548C189.61 5.24455 189.365 4.91477 189.04 4.67614C188.715 4.4375 188.314 4.31818 187.837 4.31818C187.34 4.31818 186.926 4.44413 186.594 4.69602C186.266 4.94792 186.019 5.28598 185.854 5.71023C185.691 6.13447 185.61 6.60511 185.61 7.12216C185.61 7.65246 185.693 8.12145 185.858 8.52912C186.028 8.93348 186.276 9.25166 186.604 9.48366C186.936 9.71236 187.347 9.8267 187.837 9.8267ZM194.499 6.40625V11H193.326V0.818182H194.499V4.55682H194.599C194.778 4.16241 195.046 3.84919 195.404 3.61719C195.765 3.38187 196.246 3.2642 196.846 3.2642C197.366 3.2642 197.822 3.36861 198.213 3.57741C198.604 3.78291 198.907 4.09943 199.123 4.52699C199.341 4.95123 199.451 5.49148 199.451 6.14773V11H198.278V6.22727C198.278 5.62074 198.12 5.15175 197.805 4.82031C197.494 4.48556 197.061 4.31818 196.508 4.31818C196.123 4.31818 195.778 4.39938 195.474 4.56179C195.172 4.72419 194.933 4.96117 194.758 5.27273C194.585 5.58428 194.499 5.96212 194.499 6.40625ZM204.918 3.36364V4.35795H200.961V3.36364H204.918ZM202.114 1.53409H203.288V8.8125C203.288 9.14394 203.336 9.39252 203.432 9.55824C203.531 9.72064 203.657 9.83002 203.81 9.88636C203.965 9.93939 204.129 9.96591 204.302 9.96591C204.431 9.96591 204.537 9.95928 204.62 9.94602C204.703 9.92945 204.769 9.91619 204.819 9.90625L205.058 10.9602C204.978 10.9901 204.867 11.0199 204.724 11.0497C204.582 11.0829 204.401 11.0994 204.183 11.0994C203.851 11.0994 203.526 11.0282 203.208 10.8857C202.893 10.7431 202.631 10.526 202.423 10.2344C202.217 9.94271 202.114 9.57481 202.114 9.13068V1.53409ZM211.956 5.07386L210.902 5.37216C210.835 5.1965 210.738 5.0258 210.608 4.86009C210.482 4.69105 210.31 4.55185 210.091 4.44247C209.873 4.3331 209.592 4.27841 209.251 4.27841C208.784 4.27841 208.394 4.38613 208.083 4.60156C207.775 4.81368 207.62 5.08381 207.62 5.41193C207.62 5.7036 207.726 5.93395 207.939 6.10298C208.151 6.27202 208.482 6.41288 208.933 6.52557L210.066 6.80398C210.749 6.9697 211.258 7.22325 211.593 7.56463C211.927 7.9027 212.095 8.33854 212.095 8.87216C212.095 9.30966 211.969 9.70076 211.717 10.0455C211.468 10.3902 211.12 10.6619 210.673 10.8608C210.225 11.0597 209.705 11.1591 209.112 11.1591C208.333 11.1591 207.688 10.9901 207.178 10.652C206.667 10.3139 206.344 9.82008 206.208 9.17045L207.322 8.89205C207.428 9.30303 207.629 9.61127 207.924 9.81676C208.222 10.0223 208.611 10.125 209.092 10.125C209.639 10.125 210.073 10.009 210.395 9.77699C210.719 9.54167 210.882 9.25994 210.882 8.93182C210.882 8.66667 210.789 8.4446 210.603 8.26562C210.418 8.08333 210.133 7.94744 209.748 7.85795L208.475 7.55966C207.776 7.39394 207.262 7.13707 206.934 6.78906C206.609 6.43774 206.447 5.99858 206.447 5.47159C206.447 5.04072 206.568 4.65956 206.81 4.32812C207.055 3.99669 207.388 3.73651 207.809 3.54758C208.234 3.35866 208.714 3.2642 209.251 3.2642C210.007 3.2642 210.6 3.42992 211.031 3.76136C211.465 4.0928 211.773 4.5303 211.956 5.07386ZM217.958 11V0.818182H221.398C222.193 0.818182 222.846 0.954072 223.357 1.22585C223.867 1.49432 224.245 1.86387 224.49 2.33452C224.735 2.80516 224.858 3.34044 224.858 3.94034C224.858 4.54025 224.735 5.07221 224.49 5.53622C224.245 6.00024 223.869 6.36482 223.362 6.62997C222.855 6.89181 222.207 7.02273 221.418 7.02273H218.634V5.90909H221.378C221.922 5.90909 222.359 5.82955 222.691 5.67045C223.025 5.51136 223.267 5.28598 223.416 4.99432C223.569 4.69934 223.645 4.34801 223.645 3.94034C223.645 3.53267 223.569 3.17637 223.416 2.87145C223.264 2.56652 223.02 2.3312 222.686 2.16548C222.351 1.99645 221.908 1.91193 221.358 1.91193H219.191V11H217.958ZM222.75 6.42614L225.256 11H223.824L221.358 6.42614H222.75ZM229.873 11.1591C229.137 11.1591 228.503 10.9967 227.969 10.6719C227.439 10.3438 227.029 9.88636 226.741 9.29972C226.456 8.70975 226.314 8.02367 226.314 7.24148C226.314 6.45928 226.456 5.76989 226.741 5.1733C227.029 4.57339 227.431 4.10606 227.944 3.77131C228.461 3.43324 229.065 3.2642 229.754 3.2642C230.152 3.2642 230.544 3.33049 230.932 3.46307C231.32 3.59564 231.673 3.81108 231.991 4.10938C232.309 4.40436 232.563 4.79545 232.752 5.28267C232.941 5.76989 233.035 6.36979 233.035 7.08239V7.57955H227.149V6.56534H231.842C231.842 6.13447 231.756 5.75 231.583 5.41193C231.414 5.07386 231.172 4.80705 230.858 4.61151C230.546 4.41596 230.178 4.31818 229.754 4.31818C229.287 4.31818 228.882 4.43419 228.541 4.66619C228.203 4.89489 227.943 5.19318 227.76 5.56108C227.578 5.92898 227.487 6.32339 227.487 6.74432V7.42045C227.487 7.99716 227.586 8.48603 227.785 8.88707C227.987 9.2848 228.267 9.58807 228.625 9.79688C228.983 10.0024 229.399 10.1051 229.873 10.1051C230.181 10.1051 230.46 10.062 230.708 9.97585C230.96 9.88636 231.177 9.75379 231.36 9.57812C231.542 9.39915 231.683 9.17708 231.782 8.91193L232.916 9.23011C232.797 9.61458 232.596 9.95265 232.314 10.2443C232.033 10.5327 231.685 10.758 231.27 10.9205C230.856 11.0795 230.39 11.1591 229.873 11.1591ZM240.229 5.07386L239.175 5.37216C239.109 5.1965 239.011 5.0258 238.882 4.86009C238.756 4.69105 238.583 4.55185 238.365 4.44247C238.146 4.3331 237.866 4.27841 237.525 4.27841C237.057 4.27841 236.668 4.38613 236.356 4.60156C236.048 4.81368 235.894 5.08381 235.894 5.41193C235.894 5.7036 236 5.93395 236.212 6.10298C236.424 6.27202 236.756 6.41288 237.206 6.52557L238.34 6.80398C239.023 6.9697 239.531 7.22325 239.866 7.56463C240.201 7.9027 240.368 8.33854 240.368 8.87216C240.368 9.30966 240.242 9.70076 239.99 10.0455C239.742 10.3902 239.394 10.6619 238.946 10.8608C238.499 11.0597 237.979 11.1591 237.385 11.1591C236.606 11.1591 235.962 10.9901 235.451 10.652C234.941 10.3139 234.618 9.82008 234.482 9.17045L235.596 8.89205C235.702 9.30303 235.902 9.61127 236.197 9.81676C236.495 10.0223 236.885 10.125 237.365 10.125C237.912 10.125 238.346 10.009 238.668 9.77699C238.993 9.54167 239.155 9.25994 239.155 8.93182C239.155 8.66667 239.062 8.4446 238.877 8.26562C238.691 8.08333 238.406 7.94744 238.022 7.85795L236.749 7.55966C236.05 7.39394 235.536 7.13707 235.208 6.78906C234.883 6.43774 234.721 5.99858 234.721 5.47159C234.721 5.04072 234.842 4.65956 235.083 4.32812C235.329 3.99669 235.662 3.73651 236.083 3.54758C236.507 3.35866 236.988 3.2642 237.525 3.2642C238.28 3.2642 238.873 3.42992 239.304 3.76136C239.739 4.0928 240.047 4.5303 240.229 5.07386ZM245.336 11.1591C244.6 11.1591 243.966 10.9967 243.432 10.6719C242.902 10.3438 242.492 9.88636 242.204 9.29972C241.919 8.70975 241.776 8.02367 241.776 7.24148C241.776 6.45928 241.919 5.76989 242.204 5.1733C242.492 4.57339 242.893 4.10606 243.407 3.77131C243.924 3.43324 244.527 3.2642 245.217 3.2642C245.615 3.2642 246.007 3.33049 246.395 3.46307C246.783 3.59564 247.136 3.81108 247.454 4.10938C247.772 4.40436 248.026 4.79545 248.215 5.28267C248.404 5.76989 248.498 6.36979 248.498 7.08239V7.57955H242.612V6.56534H247.305C247.305 6.13447 247.219 5.75 247.046 5.41193C246.877 5.07386 246.635 4.80705 246.32 4.61151C246.009 4.41596 245.641 4.31818 245.217 4.31818C244.749 4.31818 244.345 4.43419 244.004 4.66619C243.666 4.89489 243.405 5.19318 243.223 5.56108C243.041 5.92898 242.95 6.32339 242.95 6.74432V7.42045C242.95 7.99716 243.049 8.48603 243.248 8.88707C243.45 9.2848 243.73 9.58807 244.088 9.79688C244.446 10.0024 244.862 10.1051 245.336 10.1051C245.644 10.1051 245.923 10.062 246.171 9.97585C246.423 9.88636 246.64 9.75379 246.823 9.57812C247.005 9.39915 247.146 9.17708 247.245 8.91193L248.379 9.23011C248.259 9.61458 248.059 9.95265 247.777 10.2443C247.495 10.5327 247.147 10.758 246.733 10.9205C246.319 11.0795 245.853 11.1591 245.336 11.1591ZM250.283 11V3.36364H251.416V4.51705H251.496C251.635 4.1392 251.887 3.83262 252.252 3.5973C252.616 3.36198 253.027 3.24432 253.485 3.24432C253.571 3.24432 253.678 3.24597 253.808 3.24929C253.937 3.2526 254.035 3.25758 254.101 3.2642V4.45739C254.061 4.44744 253.97 4.43253 253.828 4.41264C253.688 4.38944 253.541 4.37784 253.385 4.37784C253.014 4.37784 252.682 4.45573 252.391 4.61151C252.102 4.76397 251.874 4.97609 251.705 5.24787C251.539 5.51634 251.456 5.82292 251.456 6.16761V11H250.283ZM261.969 3.36364L259.145 11H257.952L255.128 3.36364H256.4L258.508 9.44886H258.588L260.696 3.36364H261.969ZM266.445 11.1591C265.71 11.1591 265.075 10.9967 264.541 10.6719C264.011 10.3438 263.602 9.88636 263.313 9.29972C263.028 8.70975 262.886 8.02367 262.886 7.24148C262.886 6.45928 263.028 5.76989 263.313 5.1733C263.602 4.57339 264.003 4.10606 264.517 3.77131C265.034 3.43324 265.637 3.2642 266.326 3.2642C266.724 3.2642 267.117 3.33049 267.504 3.46307C267.892 3.59564 268.245 3.81108 268.563 4.10938C268.882 4.40436 269.135 4.79545 269.324 5.28267C269.513 5.76989 269.607 6.36979 269.607 7.08239V7.57955H263.721V6.56534H268.414C268.414 6.13447 268.328 5.75 268.156 5.41193C267.987 5.07386 267.745 4.80705 267.43 4.61151C267.118 4.41596 266.75 4.31818 266.326 4.31818C265.859 4.31818 265.454 4.43419 265.113 4.66619C264.775 4.89489 264.515 5.19318 264.333 5.56108C264.15 5.92898 264.059 6.32339 264.059 6.74432V7.42045C264.059 7.99716 264.159 8.48603 264.357 8.88707C264.56 9.2848 264.84 9.58807 265.198 9.79688C265.556 10.0024 265.972 10.1051 266.445 10.1051C266.754 10.1051 267.032 10.062 267.281 9.97585C267.533 9.88636 267.75 9.75379 267.932 9.57812C268.114 9.39915 268.255 9.17708 268.355 8.91193L269.488 9.23011C269.369 9.61458 269.168 9.95265 268.887 10.2443C268.605 10.5327 268.257 10.758 267.843 10.9205C267.428 11.0795 266.963 11.1591 266.445 11.1591ZM274.276 11.1591C273.639 11.1591 273.078 10.9983 272.59 10.6768C272.103 10.352 271.722 9.89465 271.447 9.30469C271.172 8.71141 271.034 8.01042 271.034 7.2017C271.034 6.39962 271.172 5.7036 271.447 5.11364C271.722 4.52367 272.105 4.06794 272.595 3.74645C273.086 3.42495 273.653 3.2642 274.296 3.2642C274.793 3.2642 275.186 3.34706 275.474 3.51278C275.766 3.67519 275.988 3.8608 276.14 4.0696C276.296 4.27509 276.417 4.44413 276.503 4.5767H276.602V0.818182H277.776V11H276.642V9.8267H276.503C276.417 9.96591 276.294 10.1416 276.135 10.3537C275.976 10.5625 275.749 10.7498 275.454 10.9155C275.159 11.0779 274.766 11.1591 274.276 11.1591ZM274.435 10.1051C274.905 10.1051 275.303 9.98248 275.628 9.73722C275.953 9.48864 276.2 9.1456 276.369 8.7081C276.538 8.26728 276.622 7.75852 276.622 7.18182C276.622 6.61174 276.539 6.11293 276.374 5.68537C276.208 5.2545 275.963 4.91974 275.638 4.68111C275.313 4.43916 274.912 4.31818 274.435 4.31818C273.938 4.31818 273.523 4.44579 273.192 4.70099C272.864 4.95289 272.617 5.29593 272.451 5.73011C272.289 6.16098 272.208 6.64489 272.208 7.18182C272.208 7.72538 272.29 8.21922 272.456 8.66335C272.625 9.10417 272.874 9.45549 273.202 9.71733C273.533 9.97585 273.944 10.1051 274.435 10.1051Z" fill="#666666"/>
<path d="M60.5607 3.74645C60.521 3.34541 60.3503 3.03385 60.0487 2.81179C59.747 2.58972 59.3377 2.47869 58.8207 2.47869C58.4693 2.47869 58.1727 2.52841 57.9308 2.62784C57.6888 2.72396 57.5032 2.85819 57.3739 3.03054C57.248 3.20289 57.185 3.39844 57.185 3.61719C57.1784 3.79948 57.2165 3.95857 57.2994 4.09446C57.3855 4.23035 57.5032 4.34801 57.6523 4.44744C57.8015 4.54356 57.9738 4.62808 58.1694 4.70099C58.3649 4.7706 58.5737 4.83026 58.7958 4.87997L59.7106 5.09872C60.1547 5.19815 60.5624 5.33073 60.9336 5.49645C61.3048 5.66217 61.6263 5.866 61.8981 6.10795C62.1699 6.34991 62.3803 6.63494 62.5295 6.96307C62.6819 7.29119 62.7598 7.66738 62.7631 8.09162C62.7598 8.71473 62.6007 9.25497 62.2859 9.71236C61.9743 10.1664 61.5236 10.5194 60.9336 10.7713C60.3469 11.0199 59.6393 11.1442 58.8107 11.1442C57.9888 11.1442 57.2728 11.0182 56.663 10.7663C56.0565 10.5144 55.5825 10.1416 55.2411 9.64773C54.9031 9.15057 54.7257 8.53575 54.7092 7.80327H56.7923C56.8155 8.14465 56.9132 8.42969 57.0856 8.65838C57.2612 8.88376 57.4949 9.05445 57.7866 9.17045C58.0816 9.28314 58.4147 9.33949 58.7859 9.33949C59.1504 9.33949 59.467 9.28646 59.7354 9.1804C60.0072 9.07434 60.2177 8.92685 60.3668 8.73793C60.516 8.54901 60.5906 8.33191 60.5906 8.08665C60.5906 7.85795 60.5226 7.66572 60.3867 7.50994C60.2541 7.35417 60.0586 7.22159 59.8001 7.11222C59.5449 7.00284 59.2317 6.90341 58.8604 6.81392L57.7518 6.53551C56.8933 6.3267 56.2156 6.00024 55.7184 5.55611C55.2212 5.11198 54.9743 4.51373 54.9776 3.76136C54.9743 3.14489 55.1384 2.6063 55.4698 2.1456C55.8046 1.6849 56.2636 1.32528 56.8469 1.06676C57.4303 0.808238 58.0932 0.678977 58.8356 0.678977C59.5913 0.678977 60.2508 0.808238 60.8143 1.06676C61.381 1.32528 61.8219 1.6849 62.1367 2.1456C62.4516 2.6063 62.614 3.13991 62.6239 3.74645H60.5607ZM66.2892 6.58523V11H64.1713V0.818182H66.2296V4.71094H66.3191C66.4914 4.26018 66.7698 3.9072 67.1543 3.65199C67.5388 3.39347 68.021 3.2642 68.601 3.2642C69.1313 3.2642 69.5937 3.38021 69.9881 3.61222C70.3858 3.84091 70.6941 4.17069 70.9128 4.60156C71.1349 5.02912 71.2443 5.54119 71.2409 6.13778V11H69.123V6.51562C69.1264 6.04498 69.007 5.67874 68.7651 5.4169C68.5265 5.15507 68.1917 5.02415 67.7608 5.02415C67.4725 5.02415 67.2173 5.08546 66.9952 5.2081C66.7765 5.33073 66.6041 5.50971 66.4782 5.74503C66.3555 5.97704 66.2926 6.2571 66.2892 6.58523ZM75.0852 11.1442C74.598 11.1442 74.1638 11.0597 73.7827 10.8906C73.4015 10.7183 73.0999 10.4647 72.8778 10.13C72.6591 9.7919 72.5497 9.37098 72.5497 8.86719C72.5497 8.44295 72.6276 8.08665 72.7834 7.7983C72.9392 7.50994 73.1513 7.27794 73.4197 7.10227C73.6882 6.92661 73.9931 6.79403 74.3345 6.70455C74.6792 6.61506 75.0405 6.55208 75.4183 6.51562C75.8625 6.46922 76.2204 6.42614 76.4922 6.38636C76.764 6.34328 76.9612 6.2803 77.0838 6.19744C77.2064 6.11458 77.2678 5.99195 77.2678 5.82955V5.79972C77.2678 5.48485 77.1683 5.24124 76.9695 5.06889C76.7739 4.89654 76.4955 4.81037 76.1342 4.81037C75.7531 4.81037 75.4498 4.89489 75.2244 5.06392C74.9991 5.22964 74.8499 5.43845 74.777 5.69034L72.8182 5.53125C72.9176 5.06723 73.1132 4.66619 73.4048 4.32812C73.6965 3.98674 74.0727 3.7249 74.5334 3.54261C74.9974 3.35701 75.5343 3.2642 76.1442 3.2642C76.5684 3.2642 76.9744 3.31392 77.3622 3.41335C77.7533 3.51278 78.0997 3.6669 78.4013 3.87571C78.7062 4.08452 78.9465 4.35298 79.1222 4.68111C79.2978 5.00592 79.3857 5.39536 79.3857 5.84943V11H77.3771V9.94105H77.3175C77.1948 10.1797 77.0308 10.3902 76.8253 10.5724C76.6198 10.7514 76.3729 10.8923 76.0845 10.995C75.7962 11.0945 75.4631 11.1442 75.0852 11.1442ZM75.6918 9.68253C76.0033 9.68253 76.2784 9.62121 76.517 9.49858C76.7557 9.37263 76.9429 9.2036 77.0788 8.99148C77.2147 8.77936 77.2827 8.53906 77.2827 8.2706V7.46023C77.2164 7.50331 77.1252 7.54309 77.0092 7.57955C76.8965 7.61269 76.7689 7.64418 76.6264 7.67401C76.4839 7.70052 76.3414 7.72538 76.1989 7.74858C76.0563 7.76847 75.9271 7.78669 75.8111 7.80327C75.5625 7.83973 75.3454 7.89773 75.1598 7.97727C74.9742 8.05682 74.83 8.16454 74.7273 8.30043C74.6245 8.433 74.5732 8.59872 74.5732 8.79759C74.5732 9.08594 74.6776 9.30634 74.8864 9.45881C75.0985 9.60795 75.367 9.68253 75.6918 9.68253ZM82.5352 11L80.457 3.36364H82.5998L83.783 8.49432H83.8526L85.0856 3.36364H87.1886L88.4414 8.46449H88.506L89.6694 3.36364H91.8072L89.734 11H87.4918L86.1793 6.19744H86.0849L84.7724 11H82.5352ZM96.1958 11.1491C95.4236 11.1491 94.7557 10.9851 94.1923 10.657C93.6322 10.3255 93.1996 9.86482 92.8947 9.27486C92.5898 8.68158 92.4373 7.99384 92.4373 7.21165C92.4373 6.42282 92.5898 5.73343 92.8947 5.14347C93.1996 4.55019 93.6322 4.08949 94.1923 3.76136C94.7557 3.42992 95.4236 3.2642 96.1958 3.2642C96.9681 3.2642 97.6343 3.42992 98.1944 3.76136C98.7579 4.08949 99.1921 4.55019 99.497 5.14347C99.8019 5.73343 99.9544 6.42282 99.9544 7.21165C99.9544 7.99384 99.8019 8.68158 99.497 9.27486C99.1921 9.86482 98.7579 10.3255 98.1944 10.657C97.6343 10.9851 96.9681 11.1491 96.1958 11.1491ZM96.2058 9.50852C96.5571 9.50852 96.8504 9.40909 97.0858 9.21023C97.3211 9.00805 97.4984 8.73295 97.6177 8.38494C97.7404 8.03693 97.8017 7.64086 97.8017 7.19673C97.8017 6.7526 97.7404 6.35653 97.6177 6.00852C97.4984 5.66051 97.3211 5.38542 97.0858 5.18324C96.8504 4.98106 96.5571 4.87997 96.2058 4.87997C95.8511 4.87997 95.5529 4.98106 95.3109 5.18324C95.0723 5.38542 94.8916 5.66051 94.769 6.00852C94.6497 6.35653 94.59 6.7526 94.59 7.19673C94.59 7.64086 94.6497 8.03693 94.769 8.38494C94.8916 8.73295 95.0723 9.00805 95.3109 9.21023C95.5529 9.40909 95.8511 9.50852 96.2058 9.50852ZM103.449 6.58523V11H101.331V3.36364H103.35V4.71094H103.439C103.608 4.26681 103.892 3.91548 104.29 3.65696C104.687 3.39512 105.17 3.2642 105.736 3.2642C106.267 3.2642 106.729 3.38021 107.123 3.61222C107.518 3.84422 107.824 4.17566 108.043 4.60653C108.262 5.03409 108.371 5.54451 108.371 6.13778V11H106.253V6.51562C106.257 6.0483 106.137 5.68371 105.895 5.42188C105.653 5.15672 105.32 5.02415 104.896 5.02415C104.611 5.02415 104.359 5.08546 104.14 5.2081C103.925 5.33073 103.756 5.50971 103.633 5.74503C103.514 5.97704 103.453 6.2571 103.449 6.58523ZM113.521 11.1491C112.735 11.1491 112.059 10.9901 111.492 10.6719C110.929 10.3504 110.495 9.89631 110.19 9.30966C109.885 8.7197 109.732 8.02202 109.732 7.21662C109.732 6.43111 109.885 5.74171 110.19 5.14844C110.495 4.55516 110.924 4.0928 111.477 3.76136C112.034 3.42992 112.687 3.2642 113.436 3.2642C113.94 3.2642 114.409 3.34541 114.843 3.50781C115.281 3.6669 115.662 3.9072 115.987 4.22869C116.315 4.55019 116.57 4.95455 116.752 5.44176C116.934 5.92566 117.026 6.49242 117.026 7.14205V7.72372H110.577V6.41122H115.032C115.032 6.1063 114.966 5.83617 114.833 5.60085C114.701 5.36553 114.517 5.18158 114.281 5.04901C114.049 4.91312 113.779 4.84517 113.471 4.84517C113.149 4.84517 112.864 4.91974 112.616 5.06889C112.371 5.21473 112.178 5.41193 112.039 5.66051C111.9 5.90578 111.829 6.17921 111.825 6.48082V7.72869C111.825 8.10653 111.895 8.433 112.034 8.7081C112.177 8.98319 112.377 9.19531 112.636 9.34446C112.894 9.49361 113.201 9.56818 113.555 9.56818C113.791 9.56818 114.006 9.53504 114.202 9.46875C114.397 9.40246 114.565 9.30303 114.704 9.17045C114.843 9.03788 114.949 8.87547 115.022 8.68324L116.981 8.8125C116.881 9.28314 116.678 9.69413 116.369 10.0455C116.064 10.3935 115.67 10.6652 115.186 10.8608C114.705 11.053 114.15 11.1491 113.521 11.1491ZM122.469 3.36364V4.95455H117.871V3.36364H122.469ZM118.915 1.53409H121.033V8.65341C121.033 8.84896 121.063 9.00142 121.122 9.1108C121.182 9.21686 121.265 9.29143 121.371 9.33452C121.48 9.3776 121.606 9.39915 121.749 9.39915C121.848 9.39915 121.947 9.39086 122.047 9.37429C122.146 9.3544 122.223 9.33949 122.276 9.32955L122.609 10.9055C122.503 10.9387 122.353 10.9768 122.161 11.0199C121.969 11.0663 121.735 11.0945 121.46 11.1044C120.95 11.1243 120.502 11.0563 120.118 10.9006C119.737 10.7448 119.44 10.5028 119.228 10.1747C119.016 9.84659 118.911 9.43229 118.915 8.93182V1.53409ZM127.217 11.1491C126.435 11.1491 125.762 10.9834 125.199 10.652C124.639 10.3172 124.208 9.85322 123.906 9.25994C123.608 8.66667 123.459 7.9839 123.459 7.21165C123.459 6.42945 123.61 5.74337 123.911 5.15341C124.216 4.56013 124.649 4.09777 125.209 3.76633C125.769 3.43158 126.435 3.2642 127.207 3.2642C127.874 3.2642 128.457 3.38518 128.957 3.62713C129.458 3.86908 129.854 4.20881 130.146 4.64631C130.437 5.08381 130.598 5.59754 130.628 6.1875H128.629C128.573 5.80634 128.424 5.49976 128.182 5.26776C127.943 5.03243 127.63 4.91477 127.242 4.91477C126.914 4.91477 126.627 5.00426 126.382 5.18324C126.14 5.3589 125.951 5.61577 125.815 5.95384C125.679 6.2919 125.612 6.70123 125.612 7.18182C125.612 7.66903 125.678 8.08333 125.81 8.42472C125.946 8.7661 126.137 9.02628 126.382 9.20526C126.627 9.38423 126.914 9.47372 127.242 9.47372C127.484 9.47372 127.701 9.42401 127.893 9.32457C128.089 9.22514 128.25 9.08097 128.376 8.89205C128.505 8.69981 128.589 8.46946 128.629 8.20099H130.628C130.595 8.78433 130.436 9.29806 130.151 9.74219C129.869 10.183 129.479 10.5277 128.982 10.7763C128.485 11.0249 127.897 11.1491 127.217 11.1491ZM135.727 11.1392C134.985 11.1392 134.324 11.0116 133.744 10.7564C133.167 10.4979 132.711 10.1432 132.377 9.69247C132.045 9.2384 131.874 8.71473 131.865 8.12145H134.032C134.045 8.37003 134.127 8.58878 134.276 8.7777C134.428 8.9633 134.63 9.10748 134.882 9.21023C135.134 9.31297 135.418 9.36435 135.732 9.36435C136.061 9.36435 136.351 9.30634 136.602 9.19034C136.854 9.07434 137.052 8.91359 137.194 8.7081C137.337 8.5026 137.408 8.26562 137.408 7.99716C137.408 7.72538 137.332 7.48509 137.179 7.27628C137.03 7.06416 136.815 6.89844 136.533 6.77912C136.254 6.6598 135.923 6.60014 135.539 6.60014H134.589V5.01918H135.539C135.863 5.01918 136.15 4.96283 136.399 4.85014C136.651 4.73745 136.846 4.58168 136.985 4.38281C137.124 4.18063 137.194 3.94531 137.194 3.67685C137.194 3.42164 137.133 3.19792 137.01 3.00568C136.891 2.81013 136.722 2.65767 136.503 2.5483C136.288 2.43892 136.036 2.38423 135.747 2.38423C135.456 2.38423 135.189 2.43726 134.947 2.54332C134.705 2.64607 134.511 2.79356 134.365 2.9858C134.219 3.17803 134.142 3.40341 134.132 3.66193H132.068C132.078 3.07528 132.246 2.55824 132.57 2.1108C132.895 1.66335 133.333 1.31368 133.883 1.06179C134.436 0.806581 135.061 0.678977 135.757 0.678977C136.46 0.678977 137.075 0.806581 137.602 1.06179C138.129 1.317 138.538 1.66169 138.83 2.09588C139.125 2.52675 139.271 3.01065 139.267 3.54758C139.271 4.11766 139.093 4.59328 138.735 4.97443C138.381 5.35559 137.918 5.59754 137.348 5.70028V5.77983C138.097 5.87595 138.667 6.13613 139.058 6.56037C139.453 6.9813 139.648 7.50829 139.645 8.14134C139.648 8.72135 139.481 9.23674 139.143 9.6875C138.808 10.1383 138.346 10.4929 137.756 10.7514C137.166 11.0099 136.49 11.1392 135.727 11.1392Z" fill="black"/>
</svg>
