<svg width="15" height="15" viewBox="0 0 15 15" fill="none" xmlns="http://www.w3.org/2000/svg">
<path d="M14.019 7.72998C14.019 11.4761 10.9839 14.5112 7.2378 14.5112C6.52686 14.5112 5.84327 14.4292 5.21436 14.2104C5.4878 13.7729 5.89795 13.0347 6.06202 12.4331C6.14405 12.1323 6.47217 10.8198 6.47217 10.8198C6.69092 11.2573 7.34717 11.6128 8.03077 11.6128C10.0815 11.6128 11.5581 9.72607 11.5581 7.40186C11.5581 5.15967 9.72608 3.46436 7.37452 3.46436C4.44873 3.46436 2.89014 5.43311 2.89014 7.56592C2.89014 8.57764 3.40967 9.80811 4.25733 10.2183C4.39405 10.2729 4.47608 10.2456 4.50342 10.1089C4.50342 10.0269 4.64014 9.56201 4.69483 9.34326C4.69483 9.28857 4.69483 9.20654 4.64014 9.15186C4.3667 8.82373 4.14795 8.19482 4.14795 7.59326C4.14795 6.1167 5.26905 4.66748 7.21045 4.66748C8.85108 4.66748 10.0269 5.78857 10.0269 7.4292C10.0269 9.26123 9.09717 10.519 7.89405 10.519C7.2378 10.519 6.74561 9.97217 6.88233 9.31592C7.07373 8.49561 7.45655 7.62061 7.45655 7.04639C7.45655 6.52686 7.18311 6.08936 6.60889 6.08936C5.9253 6.08936 5.37842 6.80029 5.37842 7.72998C5.37842 8.33154 5.56983 8.7417 5.56983 8.7417C5.56983 8.7417 4.91358 11.5854 4.77686 12.105C4.64014 12.7065 4.69483 13.5269 4.74952 14.0464C2.23389 13.062 0.456547 10.6284 0.456547 7.72998C0.456547 3.98389 3.4917 0.94873 7.2378 0.94873C10.9839 0.94873 14.019 3.98389 14.019 7.72998Z" fill="black"/>
</svg>
