<svg width="12" height="13" viewBox="0 0 12 13" fill="none" xmlns="http://www.w3.org/2000/svg">
<path d="M10.1016 2.67847C11.2422 3.80347 11.8125 5.17065 11.8125 6.78003C11.8125 8.3894 11.2422 9.7644 10.1016 10.905C8.97656 12.03 7.60938 12.5925 6 12.5925C4.39062 12.5925 3.01562 12.03 1.875 10.905C0.75 9.7644 0.1875 8.3894 0.1875 6.78003C0.1875 5.17065 0.75 3.80347 1.875 2.67847C3.01562 1.53784 4.39062 0.967529 6 0.967529C7.60938 0.967529 8.97656 1.53784 10.1016 2.67847ZM5.32031 9.85034L9.63281 5.53784C9.82031 5.36597 9.82031 5.19409 9.63281 5.02222L9.11719 4.48315C8.92969 4.31128 8.75 4.31128 8.57812 4.48315L5.0625 7.99878L3.42188 6.35815C3.25 6.18628 3.07031 6.18628 2.88281 6.35815L2.36719 6.89722C2.17969 7.06909 2.17969 7.24097 2.36719 7.41284L4.80469 9.85034C4.97656 10.0378 5.14844 10.0378 5.32031 9.85034Z" fill="#1ABA1A"/>
</svg>
