<svg width="15" height="12" viewBox="0 0 15 12" fill="none" xmlns="http://www.w3.org/2000/svg">
<path d="M13.232 2.88623C13.232 3.02295 13.232 3.13232 13.232 3.26904C13.232 7.06982 10.3609 11.4175 5.08359 11.4175C3.44297 11.4175 1.93906 10.9526 0.68125 10.1323C0.9 10.1597 1.11875 10.187 1.36484 10.187C2.70469 10.187 3.93516 9.72217 4.91953 8.95654C3.66172 8.9292 2.59531 8.10889 2.23984 6.96045C2.43125 6.98779 2.59531 7.01514 2.78672 7.01514C3.03281 7.01514 3.30625 6.96045 3.525 6.90576C2.2125 6.63232 1.22813 5.48389 1.22813 4.08936V4.06201C1.61094 4.28076 2.07578 4.39014 2.54063 4.41748C1.74766 3.89795 1.25547 3.02295 1.25547 2.03857C1.25547 1.4917 1.39219 0.999512 1.63828 0.589355C3.06016 2.31201 5.19297 3.46045 7.57188 3.59717C7.51719 3.37842 7.48984 3.15967 7.48984 2.94092C7.48984 1.35498 8.775 0.0698242 10.3609 0.0698242C11.1813 0.0698242 11.9195 0.397949 12.4664 0.972168C13.0953 0.835449 13.7242 0.589355 14.2711 0.26123C14.0523 0.944824 13.6148 1.4917 13.0133 1.84717C13.5875 1.79248 14.1617 1.62842 14.6539 1.40967C14.2711 1.98389 13.7789 2.47607 13.232 2.88623Z" fill="black"/>
</svg>
