<svg width="16" height="11" viewBox="0 0 16 11" fill="none" xmlns="http://www.w3.org/2000/svg">
<path d="M15.5037 2.14795C15.8318 3.29639 15.8318 5.75732 15.8318 5.75732C15.8318 5.75732 15.8318 8.19092 15.5037 9.3667C15.3396 10.0229 14.8201 10.5151 14.1912 10.6792C13.0154 10.98 8.36699 10.98 8.36699 10.98C8.36699 10.98 3.69121 10.98 2.51543 10.6792C1.88652 10.5151 1.36699 10.0229 1.20293 9.3667C0.874804 8.19092 0.874804 5.75732 0.874804 5.75732C0.874804 5.75732 0.874804 3.29639 1.20293 2.14795C1.36699 1.4917 1.88652 0.972168 2.51543 0.808105C3.69121 0.47998 8.36699 0.47998 8.36699 0.47998C8.36699 0.47998 13.0154 0.47998 14.1912 0.808105C14.8201 0.972168 15.3396 1.4917 15.5037 2.14795ZM6.83574 7.97217L10.7186 5.75732L6.83574 3.54248V7.97217Z" fill="black"/>
</svg>
